<?xml version="1.0" encoding="utf-8"?>
<!-- Generator: Adobe Illustrator 24.0.2, SVG Export Plug-In . SVG Version: 6.00 Build 0)  -->
<svg version="1.1" id="Layer_1" xmlns="http://www.w3.org/2000/svg" xmlns:xlink="http://www.w3.org/1999/xlink" x="0px" y="0px"
	 viewBox="0 0 16 16" style="enable-background:new 0 0 16 16;" xml:space="preserve">
<style type="text/css">
	.st0{fill-rule:evenodd;clip-rule:evenodd;fill:#464D53;}
	.st1{fill-rule:evenodd;clip-rule:evenodd;fill:#FFFFFF;}
</style>
<rect x="0" y="0" class="st0" width="16.1" height="16"/>
<path class="st1" d="M5.9,11.9c0-0.3,0.2-0.5,0.5-0.5h7c0.3,0,0.5,0.2,0.5,0.5s-0.2,0.5-0.5,0.5h-7C6.1,12.4,5.9,12.2,5.9,11.9z
	 M1.9,8.9c0-0.3,0.2-0.5,0.5-0.5h11c0.3,0,0.5,0.2,0.5,0.5s-0.2,0.5-0.5,0.5h-11C2.1,9.4,1.9,9.2,1.9,8.9z M1.9,5.9
	c0-0.3,0.2-0.5,0.5-0.5h11c0.3,0,0.5,0.2,0.5,0.5s-0.2,0.5-0.5,0.5h-11C2.1,6.4,1.9,6.2,1.9,5.9z M1.9,2.9c0-0.3,0.2-0.5,0.5-0.5h11
	c0.3,0,0.5,0.2,0.5,0.5s-0.2,0.5-0.5,0.5h-11C2.1,3.4,1.9,3.2,1.9,2.9z"/>
</svg>
